<?xml version="1.0" standalone="no"?>
<!DOCTYPE svg PUBLIC "-//W3C//DTD SVG 20010904//EN"
 "http://www.w3.org/TR/2001/REC-SVG-20010904/DTD/svg10.dtd">
<svg version="1.0" xmlns="http://www.w3.org/2000/svg"
 width="800.000000pt" height="560.000000pt" viewBox="0 0 800.000000 560.000000"
 preserveAspectRatio="xMidYMid meet">

<g transform="translate(0.000000,560.000000) scale(0.100000,-0.100000)"
fill="#000000" stroke="none">
<path d="M3709 4849 c-128 -18 -246 -75 -332 -158 -142 -137 -223 -430 -247
-899 -6 -112 -15 -225 -21 -252 -18 -86 -45 -101 -283 -155 -170 -39 -249 -82
-286 -154 -16 -33 -20 -66 -23 -247 -3 -145 -10 -235 -22 -293 -15 -70 -16
-95 -7 -162 8 -56 8 -102 1 -161 -12 -96 -10 -122 36 -363 19 -99 42 -234 51
-300 17 -128 27 -155 71 -197 64 -60 403 -238 454 -238 16 0 29 -4 29 -10 0
-22 -118 -65 -244 -89 l-42 -8 -58 101 c-88 156 -118 193 -167 206 -31 9 -127
9 -363 1 -456 -16 -494 -19 -514 -52 -15 -24 -54 -273 -46 -294 10 -25 65 -35
273 -46 262 -14 548 -6 706 21 66 11 127 20 136 20 16 0 47 -55 37 -65 -2 -3
-252 -8 -554 -11 -409 -5 -580 -4 -669 5 -66 7 -123 15 -126 17 -4 2 1 20 11
39 14 28 19 72 25 222 3 104 13 261 21 351 8 89 14 196 14 238 0 68 -2 77 -26
99 -32 30 -102 45 -209 45 -165 0 -254 -39 -240 -105 3 -16 5 -43 3 -60 -8
-79 1 -559 12 -630 19 -125 33 -144 133 -181 l62 -23 -647 0 c-579 -1 -648 -3
-648 -17 0 -13 77 -15 743 -14 570 1 763 -1 832 -11 161 -24 1255 -10 1291 16
16 11 16 15 1 53 l-17 42 28 6 c153 34 235 66 280 111 33 33 165 65 237 57 28
-2 124 -9 215 -13 l165 -8 77 -39 c43 -21 78 -41 78 -44 0 -3 -41 -11 -92 -18
-208 -28 -219 -83 -35 -171 116 -56 460 -194 587 -237 148 -49 193 -45 810 86
660 141 756 162 810 183 55 21 62 21 1013 24 838 3 957 5 957 18 0 13 -116 15
-934 17 l-934 3 52 85 c104 167 400 766 421 853 9 36 -9 57 -51 57 -18 0 -219
-34 -446 -75 -534 -98 -700 -125 -764 -125 l-52 0 -21 82 c-39 153 -51 185
-93 249 -22 35 -49 83 -60 106 -17 39 -17 45 -2 117 20 90 12 120 -46 166 -21
16 -42 42 -48 57 -26 66 -102 376 -112 458 -33 262 -61 334 -151 380 -41 22
-187 38 -292 33 -106 -5 -125 -19 -163 -122 -32 -88 -93 -161 -164 -195 -53
-25 -55 -28 -91 -112 -41 -98 -105 -189 -155 -220 -30 -18 -38 -19 -71 -8 -21
7 -74 34 -119 61 -79 47 -107 57 -118 39 -3 -4 6 -57 19 -117 26 -115 94 -566
119 -794 25 -223 29 -302 17 -334 -11 -27 -14 -28 -54 -22 -67 11 -426 134
-491 169 -85 46 -97 66 -107 184 -26 291 -25 285 -194 928 -49 189 -53 224
-27 248 20 18 30 22 164 61 111 34 137 59 174 168 24 74 28 80 36 58 20 -50 2
-218 -36 -350 -103 -357 -124 -594 -73 -801 52 -213 160 -408 242 -439 63 -24
162 56 185 149 15 63 6 121 -38 246 -77 223 -84 253 -79 350 4 78 11 105 50
200 82 197 84 338 12 594 -40 142 -43 171 -17 171 26 0 38 -12 50 -48 29 -85
187 -246 293 -300 226 -115 364 -67 473 162 45 95 62 165 76 311 6 66 13 127
15 135 2 8 9 69 14 135 25 290 -37 469 -223 642 -144 135 -282 180 -467 152z
m232 -45 c78 -23 154 -73 232 -151 92 -93 140 -169 174 -272 26 -84 28 -261 4
-478 -29 -259 -44 -327 -93 -425 -103 -205 -208 -240 -415 -138 -91 45 -211
153 -258 235 -54 92 -4 59 96 -63 87 -105 119 -135 184 -169 70 -36 126 -36
162 0 25 24 28 35 31 105 5 126 0 120 84 118 70 -1 73 0 76 23 2 13 -16 79
-40 147 -41 118 -42 126 -28 152 9 15 38 41 65 59 91 57 103 70 114 122 13 60
-1 155 -27 191 -34 45 -68 55 -187 55 -171 -1 -266 -38 -313 -123 -13 -24 -41
-111 -63 -194 -45 -176 -70 -223 -145 -279 -50 -37 -59 -40 -91 -32 -20 5 -38
14 -40 20 -3 7 26 44 62 83 78 83 112 150 156 312 16 62 40 131 52 153 31 57
104 91 248 116 141 25 164 39 164 100 -1 25 -11 65 -24 92 -91 187 -266 258
-474 193 -155 -48 -249 -132 -307 -274 -51 -126 -146 -537 -157 -682 -5 -66
-3 -78 15 -100 19 -23 28 -25 124 -30 l103 -5 6 -50 c4 -27 21 -99 39 -160 25
-86 33 -136 37 -227 7 -139 -5 -209 -52 -317 -83 -190 -79 -277 24 -571 48
-136 54 -216 21 -279 -21 -42 -74 -81 -110 -81 -59 0 -175 196 -227 385 -26
92 -28 114 -27 265 1 180 17 278 88 540 47 169 59 244 51 312 -17 154 -61 166
-105 31 -44 -133 -50 -138 -215 -184 -132 -37 -150 -55 -142 -148 3 -37 28
-147 55 -246 133 -476 157 -590 172 -803 11 -160 23 -198 72 -235 60 -46 411
-177 544 -203 36 -7 31 -9 -66 -25 -58 -10 -122 -18 -143 -18 -61 -1 -125 -21
-151 -48 -16 -16 -39 -66 -62 -137 -51 -157 -57 -166 -102 -166 -45 0 -150 45
-292 125 -140 78 -186 112 -203 149 -8 17 -22 87 -31 156 -10 69 -32 204 -51
300 -44 232 -44 231 -32 338 7 70 7 110 -3 160 -11 59 -10 78 5 147 11 53 20
152 24 295 4 118 12 227 18 241 28 66 134 117 324 155 166 33 225 69 249 152
6 20 15 120 20 222 12 232 16 276 41 428 65 394 183 564 442 632 91 24 225 26
298 4z m-64 -68 c100 -27 164 -84 214 -190 51 -108 47 -112 -136 -146 -199
-36 -252 -80 -294 -243 -54 -204 -103 -306 -180 -366 -26 -21 -44 -45 -48 -63
l-6 -29 -96 7 c-53 3 -100 11 -106 16 -22 20 0 182 61 453 75 331 135 439 287
516 107 55 211 70 304 45z m365 -467 c38 -17 51 -48 56 -129 5 -89 -7 -111
-90 -158 -109 -61 -117 -96 -59 -261 22 -63 38 -118 35 -123 -3 -4 -32 -5 -66
-1 -78 8 -88 -3 -88 -102 0 -90 -14 -133 -46 -141 -68 -17 -160 36 -243 140
-31 39 -80 94 -108 123 l-53 51 48 34 c65 48 102 121 147 298 20 80 42 154 47
165 31 61 92 95 206 115 57 11 181 4 214 -11z m450 -770 c102 -22 146 -106
168 -319 13 -118 16 -135 72 -345 47 -173 58 -200 105 -239 49 -41 54 -63 36
-139 -21 -85 -13 -116 48 -213 28 -43 55 -90 61 -104 15 -38 58 -213 54 -218
-3 -2 -26 1 -53 6 -55 11 -135 3 -221 -24 -72 -23 -141 -89 -167 -159 -10 -28
-21 -54 -25 -58 -7 -8 -19 55 -41 233 -15 115 -17 516 -5 732 7 123 6 161 -4
173 -40 48 -70 -27 -110 -279 -41 -259 -53 -408 -54 -651 -1 -269 3 -293 59
-319 57 -27 92 -30 122 -10 16 10 38 18 50 19 31 1 38 10 102 122 73 126 81
131 262 148 78 7 147 11 155 8 20 -8 201 21 704 112 595 107 550 101 550 80 0
-42 -297 -655 -400 -825 -73 -122 -83 -130 -148 -130 -29 0 -189 -30 -355 -66
-782 -170 -1017 -216 -1017 -200 0 4 17 41 39 84 46 91 140 307 244 557 125
302 140 355 101 355 -31 0 -76 -82 -210 -382 -47 -106 -124 -273 -170 -370
-52 -109 -84 -189 -84 -209 l0 -32 -22 20 c-38 35 -75 48 -298 112 -218 61
-350 107 -350 120 0 4 44 15 98 25 161 28 175 33 169 62 -5 27 -9 29 83 -33
48 -32 104 -31 126 2 22 34 13 63 -41 126 -25 29 -45 56 -45 61 0 25 103 -46
166 -114 51 -56 106 -101 137 -111 29 -11 73 41 132 155 69 135 70 153 8 208
-67 59 -154 109 -206 119 -45 8 -63 6 -227 -23 -101 -17 -120 -15 -320 48 -80
25 -175 52 -210 60 -36 8 -55 14 -43 15 34 2 53 48 53 128 0 163 -106 941
-150 1102 -5 19 -8 36 -7 37 1 2 41 -20 89 -48 56 -32 104 -52 132 -55 42 -5
47 -3 94 41 64 60 95 106 136 199 39 91 48 103 83 112 15 3 40 16 56 27 l29
21 -11 -22 c-7 -12 -31 -35 -53 -51 -48 -35 -62 -54 -72 -94 -11 -44 -8 -579
4 -782 21 -357 72 -668 115 -704 22 -18 62 -15 85 5 26 23 25 68 0 165 -29
109 -26 173 15 320 116 420 207 914 185 1000 -8 32 -36 36 -101 15 -28 -10
-53 -15 -55 -12 -3 3 8 24 25 48 17 23 31 50 31 59 0 22 -45 108 -71 136 -15
16 -18 29 -13 50 9 37 44 107 58 116 18 12 259 9 318 -3z m-359 -228 c35 -64
34 -82 -8 -137 -69 -90 -27 -105 133 -46 49 18 -49 -531 -176 -988 -44 -159
-45 -212 -12 -351 25 -105 23 -132 -12 -127 -39 5 -70 130 -103 413 -33 287
-47 1021 -20 1067 6 9 29 31 53 48 33 23 52 49 75 100 18 38 35 69 38 70 3 0
18 -22 32 -49z m364 -583 c-4 -51 -12 -156 -18 -233 -16 -205 6 -518 57 -809
8 -43 -3 -56 -49 -56 -41 0 -86 27 -93 56 -4 14 -4 150 -1 302 3 206 10 317
26 432 48 346 92 521 78 308z m-3199 -685 c47 -23 49 -40 27 -278 -8 -99 -19
-272 -23 -385 -5 -128 -13 -213 -20 -227 -19 -35 -57 -38 -162 -15 -146 33
-163 52 -179 197 -14 130 -24 452 -16 530 l8 67 36 -9 c45 -10 267 -11 303 0
15 4 35 19 44 33 16 24 16 27 -3 52 -25 34 -59 43 -169 44 -95 1 -150 -12
-196 -44 -16 -11 -28 -15 -28 -9 0 21 40 50 77 56 21 4 45 8 53 10 40 10 214
-5 248 -22z m-45 -34 c39 -11 48 -32 20 -48 -28 -14 -164 -24 -230 -16 -99 11
-108 31 -27 60 46 17 184 19 237 4z m3642 -84 c-149 -20 -160 -28 -255 -193
-23 -41 -44 -71 -47 -68 -3 3 7 37 22 77 30 76 70 131 116 155 44 22 138 42
199 42 49 0 44 -2 -35 -13z m-120 -192 c-41 -114 -248 -597 -316 -741 -27 -56
-54 -100 -59 -97 -17 11 -12 26 66 190 42 88 123 265 180 393 109 244 132 292
139 292 2 0 -2 -17 -10 -37z m-1227 -53 c35 -6 125 -30 200 -54 199 -64 245
-72 328 -57 181 32 211 35 253 22 46 -13 188 -106 205 -134 9 -14 0 -39 -47
-130 -73 -142 -79 -151 -109 -141 -12 4 -62 47 -111 96 -92 94 -159 135 -203
124 -37 -10 -30 -38 27 -105 34 -42 49 -68 47 -83 -5 -38 -38 -32 -123 23
l-80 51 -75 -7 c-108 -9 -118 -8 -174 23 -85 48 -113 53 -334 63 -171 7 -226
6 -273 -5 -32 -7 -59 -12 -59 -10 0 9 75 224 86 245 18 35 51 47 174 59 58 6
123 15 145 19 56 12 53 12 123 1z m-1093 -234 c31 -33 145 -224 145 -244 0 -9
-129 -33 -265 -48 l-60 -7 38 42 c73 81 119 215 85 249 -31 31 -80 -3 -168
-113 -62 -78 -85 -128 -70 -155 5 -10 10 -22 10 -26 0 -14 -623 16 -638 30 -6
7 23 231 34 261 4 8 16 18 28 20 32 8 397 22 625 23 l204 2 32 -34z m-75 -55
c0 -50 -78 -184 -125 -215 -28 -19 -65 -8 -65 20 0 36 147 214 177 214 7 0 13
-9 13 -19z m1513 -138 c-7 -2 -19 -2 -25 0 -7 3 -2 5 12 5 14 0 19 -2 13 -5z
m14 -39 c-3 -3 -63 -16 -133 -29 -114 -21 -143 -33 -144 -57 0 -26 121 -71
410 -154 179 -51 236 -72 277 -100 28 -20 60 -35 70 -34 10 1 45 1 78 0 59 -2
59 -2 20 -11 -91 -18 -193 -11 -289 22 -210 72 -589 231 -648 272 -36 24 -35
33 6 47 62 20 368 58 353 44z m1840 -120 c-3 -3 -12 -4 -19 -1 -8 3 -5 6 6 6
11 1 17 -2 13 -5z m-38 -8 c-7 -7 -400 -88 -405 -83 -2 2 64 19 148 37 84 17
167 36 183 40 32 9 81 13 74 6z m-420 -90 c-7 -7 -441 -97 -451 -94 -6 2 86
24 203 50 202 43 258 53 248 44z m-470 -100 c-7 -7 -171 -38 -175 -33 -3 2 28
11 68 20 74 15 115 20 107 13z m-202 -42 c-3 -3 -12 -4 -19 -1 -8 3 -5 6 6 6
11 1 17 -2 13 -5z m-50 -10 c-3 -3 -12 -4 -19 -1 -8 3 -5 6 6 6 11 1 17 -2 13
-5z"/>
</g>
</svg>
