<?xml version="1.0" standalone="no"?>
<!DOCTYPE svg PUBLIC "-//W3C//DTD SVG 20010904//EN"
 "http://www.w3.org/TR/2001/REC-SVG-20010904/DTD/svg10.dtd">
<svg version="1.0" xmlns="http://www.w3.org/2000/svg"
 width="980.000000pt" height="980.000000pt" viewBox="0 0 980.000000 980.000000"
 preserveAspectRatio="xMidYMid meet">

<g transform="translate(0.000000,980.000000) scale(0.100000,-0.100000)"
fill="#000000" stroke="none">
<path d="M6360 8134 c-19 -8 -43 -22 -53 -31 -14 -14 -35 -16 -106 -14 -233 7
-441 -82 -640 -273 -168 -163 -256 -343 -253 -521 0 -38 8 -92 17 -120 8 -27
18 -95 22 -150 l6 -101 -44 -2 c-24 -2 -61 -8 -83 -14 l-38 -12 6 -45 c3 -25
15 -64 26 -86 11 -22 25 -59 30 -82 6 -23 27 -66 47 -95 40 -59 40 -35 -4
-233 -29 -133 -7 -395 53 -613 42 -154 44 -138 -22 -141 -66 -3 -168 -22 -232
-45 -93 -33 -169 -83 -268 -178 -90 -86 -198 -168 -221 -168 -4 0 -93 -129
-197 -285 -104 -156 -193 -282 -197 -279 -5 3 -9 17 -9 32 -1 38 -49 120 -91
154 l-36 29 -874 80 c-952 87 -1098 98 -1599 129 -184 11 -356 22 -383 25 -43
5 -48 4 -59 -20 -25 -55 32 -445 148 -1020 60 -292 252 -1168 306 -1394 l23
-93 345 -93 c190 -51 489 -131 665 -178 176 -47 496 -133 710 -191 215 -57
592 -159 839 -225 247 -67 455 -121 461 -121 27 0 1107 445 1307 538 194 90
217 107 204 154 -5 20 -2 21 102 15 562 -33 1382 -3 1961 72 125 16 125 16
148 50 51 76 79 231 93 526 5 116 7 256 4 312 l-7 102 29 6 c93 20 121 28 165
50 26 14 74 49 105 78 l57 53 -37 110 c-192 557 -321 944 -341 1019 -92 348
-211 567 -356 653 -100 60 -299 113 -533 142 -88 11 -163 20 -168 20 -16 0 -7
28 31 101 84 159 93 304 36 540 -41 166 -127 451 -248 824 -46 143 -97 300
-112 349 -31 98 -99 238 -159 331 -54 81 -197 222 -274 269 -119 72 -225 93
-302 60z m-334 -789 c193 -34 371 -114 550 -248 67 -50 97 -79 109 -108 10
-22 16 -42 13 -45 -3 -3 -77 -20 -164 -38 -147 -30 -163 -31 -209 -19 -27 7
-102 18 -165 24 -135 14 -247 -1 -342 -45 -70 -32 -93 -32 -156 -1 -27 13 -90
32 -140 42 l-91 17 -7 65 c-7 65 0 217 12 258 6 20 65 49 164 79 114 34 291
42 426 19z m-674 -572 c-3 -142 -9 -178 -26 -164 -19 16 -45 116 -48 185 -3
55 -1 61 22 73 53 27 55 22 52 -94z m192 85 c22 -5 55 -25 73 -43 28 -28 33
-40 33 -83 0 -27 -7 -69 -15 -93 -29 -80 -68 -105 -152 -94 l-51 6 -7 51 c-4
28 -4 102 0 165 l7 115 37 -7 c20 -3 54 -11 75 -17z m688 -18 c44 -21 62 -71
55 -158 -10 -126 -55 -168 -176 -164 -101 3 -169 20 -201 50 -55 52 -103 213
-72 244 6 6 35 19 64 30 44 15 74 18 178 15 75 -2 136 -9 152 -17z m520 -114
c19 -167 -7 -375 -73 -574 -12 -37 -28 -74 -35 -83 -8 -9 -12 -18 -8 -21 3 -3
-30 -51 -73 -106 -151 -194 -235 -353 -219 -415 8 -35 95 -100 177 -134 54
-22 87 -27 209 -34 133 -8 196 -6 258 7 31 6 28 -11 -17 -102 -49 -97 -156
-216 -244 -272 -124 -78 -260 -119 -427 -128 -181 -10 -295 30 -398 141 -94
101 -147 245 -159 427 l-6 96 39 11 c21 6 49 18 62 26 12 9 26 14 31 11 11 -7
31 -120 34 -201 3 -46 4 -40 5 25 1 49 -4 108 -13 140 -8 30 -15 74 -15 96 l0
42 58 6 c198 24 437 140 640 314 29 25 50 47 47 50 -3 3 -22 -10 -43 -30 -66
-64 -204 -157 -311 -212 -230 -117 -424 -142 -508 -65 -14 13 -73 121 -131
239 -99 204 -171 391 -187 489 l-7 44 34 -7 c49 -9 138 10 165 36 26 24 63
115 63 154 0 36 18 64 41 64 15 0 29 -19 58 -82 65 -142 147 -192 311 -193
143 0 197 43 207 168 3 34 12 70 20 79 18 20 94 47 265 92 98 26 125 30 131
20 4 -7 13 -60 19 -118z m853 -1106 c276 -41 462 -105 553 -193 95 -92 189
-286 258 -532 20 -71 87 -282 150 -467 63 -185 114 -339 114 -343 0 -3 -15 11
-32 31 -112 128 -295 241 -428 265 -190 34 -393 -70 -548 -279 -59 -79 -71
-122 -72 -242 0 -111 12 -150 58 -192 l39 -35 15 -134 c9 -74 15 -135 14 -136
-2 -2 -23 -6 -48 -9 l-45 -6 -7 78 c-40 479 -43 498 -75 502 -42 6 -113 -20
-189 -71 -113 -76 -156 -89 -302 -95 -86 -3 -153 1 -215 11 -49 9 -91 14 -93
12 -5 -5 38 -598 44 -604 11 -11 11 17 -3 188 -7 101 -12 185 -11 187 2 1 55
10 118 20 82 11 140 14 200 9 47 -3 100 -6 118 -6 37 1 134 47 180 86 59 49
156 72 180 43 9 -12 45 -358 38 -365 -1 -2 -88 -21 -192 -42 -104 -21 -228
-50 -275 -64 -128 -37 -378 -81 -694 -122 -186 -24 -827 -75 -950 -75 -139 0
-408 31 -578 66 l-29 6 4 399 c2 219 0 399 -3 399 -3 0 -9 -68 -13 -151 -7
-164 -14 -185 -75 -228 -52 -38 -73 -36 -106 10 -27 38 -195 199 -338 325
l-58 51 -50 342 -50 342 28 44 c75 119 358 535 363 535 4 0 12 -15 18 -32 6
-18 52 -152 102 -298 96 -278 156 -479 167 -555 3 -25 9 -45 14 -45 27 0 -82
378 -224 771 -59 166 -62 177 -45 188 16 10 21 6 39 -36 136 -313 236 -640
244 -797 2 -43 7 -81 11 -85 4 -3 4 39 1 94 -9 150 -76 381 -202 697 -30 75
-55 139 -55 141 0 3 19 19 41 36 23 17 85 72 137 122 78 75 112 99 180 132 88
41 233 77 314 77 l47 0 31 -62 c38 -76 76 -118 107 -118 13 0 40 15 61 34 l38
35 12 -99 c44 -349 202 -557 456 -601 93 -16 299 -6 396 19 220 57 435 196
531 345 21 32 52 101 69 152 l32 95 41 11 c100 26 170 92 202 190 16 48 17 49
58 49 23 0 105 -9 182 -20z m-5960 -565 c121 -8 294 -20 385 -26 91 -6 583
-49 1093 -95 511 -46 933 -84 938 -84 19 0 88 -73 107 -114 12 -24 25 -84 31
-137 31 -279 167 -1159 316 -2049 2 -14 27 -162 54 -329 28 -167 53 -306 56
-309 4 -5 259 86 765 272 648 238 754 276 763 267 22 -22 -26 -64 -126 -111
-139 -66 -600 -259 -1022 -429 l-350 -142 -580 156 c-736 198 -948 255 -1710
460 -341 91 -643 173 -671 181 l-50 14 -33 143 c-310 1350 -475 2219 -444
2337 6 23 7 23 132 16 69 -4 225 -13 346 -21z m6620 -700 c118 -31 262 -128
375 -253 56 -62 63 -76 106 -202 25 -74 48 -141 51 -149 17 -43 -200 153 -343
310 -61 68 -77 79 -140 102 -267 96 -480 27 -589 -189 -29 -56 -30 -65 -30
-186 0 -71 -3 -128 -6 -128 -8 0 -45 42 -58 67 -33 65 -19 255 24 328 37 63
151 182 218 227 122 83 257 108 392 73z m35 -201 l85 -29 34 -160 34 -160 4
-345 c5 -367 -5 -553 -37 -706 -22 -108 -56 -183 -85 -189 -56 -12 -456 -52
-770 -76 -247 -19 -1110 -23 -1358 -6 -202 14 -228 14 -370 -3 -227 -27 -437
-43 -493 -37 -27 2 -101 21 -164 42 -63 20 -135 38 -160 38 -52 1 -295 -91
-394 -149 -32 -19 -60 -33 -62 -32 -1 2 -11 54 -22 116 l-19 112 101 54 c56
30 137 72 181 93 96 46 90 42 83 49 -4 3 -86 -35 -184 -85 -97 -50 -179 -90
-181 -88 -8 9 -31 162 -25 168 11 9 228 99 241 99 6 0 11 4 11 10 0 10 -40 -4
-173 -60 -42 -18 -80 -31 -82 -28 -9 9 -27 127 -22 141 2 6 37 23 76 37 39 13
71 28 71 32 0 6 -57 -12 -141 -47 -13 -5 -18 3 -23 37 -4 24 -3 44 2 46 5 1
36 19 68 39 124 76 129 76 389 27 303 -57 579 -81 740 -65 61 6 225 20 365 31
496 39 1010 116 1195 180 31 11 152 38 268 60 117 22 223 43 236 46 22 5 23 8
18 57 -45 390 -46 469 -2 559 49 103 127 176 226 212 72 26 232 17 339 -20z
m176 -136 c128 -136 261 -258 311 -287 16 -9 14 -14 -22 -51 -50 -52 -109 -87
-186 -111 -105 -33 -104 -34 -105 74 -2 91 -32 293 -58 395 -8 28 -13 52 -11
52 2 0 34 -33 71 -72z m-919 -106 c7 -4 15 -46 19 -100 l7 -93 -25 10 c-39 15
-106 -5 -163 -48 -105 -81 -122 -85 -290 -83 -93 2 -182 -3 -235 -12 -47 -7
-86 -12 -88 -11 -3 3 -20 189 -17 192 1 2 49 -4 106 -13 119 -18 265 -13 351
12 29 9 82 35 118 59 97 63 141 84 200 94 3 0 10 -3 17 -7z m-3066 -179 c137
-126 198 -188 222 -229 4 -8 -11 -28 -45 -58 -29 -25 -55 -46 -58 -46 -3 0
-13 12 -22 28 -9 15 -68 81 -131 147 l-114 120 -12 75 c-7 41 -14 85 -17 98
-7 34 3 26 177 -135z m53 -272 c20 -24 41 -52 47 -63 9 -17 12 -17 52 11 23
16 53 41 66 55 14 14 33 26 43 26 29 0 73 26 102 60 l26 32 2 -189 c1 -103 3
-208 4 -232 l2 -43 -47 6 c-25 3 -85 9 -133 12 l-87 7 -53 -35 c-84 -56 -118
-71 -123 -56 -2 7 -14 76 -26 152 l-22 140 69 63 c38 34 65 63 61 63 -5 0 -34
-22 -65 -50 -31 -27 -59 -50 -63 -50 -6 0 -49 248 -49 284 0 16 117 -100 194
-193z m651 -993 l130 -40 130 5 c72 3 219 15 328 27 138 16 219 20 265 15 l67
-8 -40 -17 c-22 -9 -177 -67 -345 -128 -168 -61 -483 -176 -700 -256 l-395
-145 -7 26 c-4 14 -8 44 -10 66 l-3 40 100 32 c413 131 561 180 568 185 4 3
-82 26 -190 49 -109 24 -238 52 -287 63 l-90 21 30 15 c16 8 81 34 144 58 131
49 119 49 305 -8z"/>
<path d="M7875 3300 c11 -4 52 -18 90 -30 131 -41 231 -111 287 -199 15 -25
28 -39 28 -33 0 23 -48 89 -92 126 -53 47 -151 97 -242 125 -67 21 -110 28
-71 11z"/>
<path d="M5688 2902 c-7 -46 10 -90 46 -117 18 -14 36 -25 41 -25 4 0 -5 10
-21 22 -48 37 -54 50 -52 101 3 51 -7 65 -14 19z"/>
</g>
</svg>
